<mxfile host="app.diagrams.net" modified="2024-04-23T13:16:14.896Z" agent="Mozilla/5.0 (Windows NT 10.0; Win64; x64) AppleWebKit/537.36 (KHTML, like Gecko) Chrome/123.0.0.0 Safari/537.36" etag="caEub_zp5s9_cnB95XMh" version="24.2.8" type="device">
  <diagram name="Page-1" id="yx7FTV7al8Zu3Y11XhSC">
    <mxGraphModel dx="1434" dy="784" grid="1" gridSize="10" guides="1" tooltips="1" connect="1" arrows="1" fold="1" page="1" pageScale="1" pageWidth="850" pageHeight="1100" math="0" shadow="0">
      <root>
        <mxCell id="0" />
        <mxCell id="1" parent="0" />
        <mxCell id="Rd3AmwXykcZ8SJWORNFc-4" value="User" style="swimlane;childLayout=stackLayout;horizontal=1;startSize=50;horizontalStack=0;rounded=1;fontSize=14;fontStyle=0;strokeWidth=2;resizeParent=0;resizeLast=1;shadow=0;dashed=0;align=center;arcSize=4;whiteSpace=wrap;html=1;" vertex="1" parent="1">
          <mxGeometry x="40" y="280" width="160" height="120" as="geometry" />
        </mxCell>
        <mxCell id="Rd3AmwXykcZ8SJWORNFc-5" value="-login&lt;div&gt;-password&lt;/div&gt;" style="align=left;strokeColor=none;fillColor=none;spacingLeft=4;fontSize=12;verticalAlign=top;resizable=0;rotatable=0;part=1;html=1;" vertex="1" parent="Rd3AmwXykcZ8SJWORNFc-4">
          <mxGeometry y="50" width="160" height="70" as="geometry" />
        </mxCell>
        <mxCell id="Rd3AmwXykcZ8SJWORNFc-6" value="Profile" style="swimlane;childLayout=stackLayout;horizontal=1;startSize=50;horizontalStack=0;rounded=1;fontSize=14;fontStyle=0;strokeWidth=2;resizeParent=0;resizeLast=1;shadow=0;dashed=0;align=center;arcSize=4;whiteSpace=wrap;html=1;" vertex="1" parent="1">
          <mxGeometry x="230" y="280" width="160" height="160" as="geometry" />
        </mxCell>
        <mxCell id="Rd3AmwXykcZ8SJWORNFc-7" value="-name&lt;div&gt;-surname&lt;/div&gt;&lt;div&gt;-dateOfBirth&lt;/div&gt;&lt;div&gt;-Comments&lt;/div&gt;&lt;div&gt;-rol&lt;/div&gt;" style="align=left;strokeColor=none;fillColor=none;spacingLeft=4;fontSize=12;verticalAlign=top;resizable=0;rotatable=0;part=1;html=1;" vertex="1" parent="Rd3AmwXykcZ8SJWORNFc-6">
          <mxGeometry y="50" width="160" height="110" as="geometry" />
        </mxCell>
        <mxCell id="Rd3AmwXykcZ8SJWORNFc-13" value="Creedentials" style="swimlane;childLayout=stackLayout;horizontal=1;startSize=50;horizontalStack=0;rounded=1;fontSize=14;fontStyle=0;strokeWidth=2;resizeParent=0;resizeLast=1;shadow=0;dashed=0;align=center;arcSize=4;whiteSpace=wrap;html=1;" vertex="1" parent="1">
          <mxGeometry x="420" y="280" width="160" height="120" as="geometry" />
        </mxCell>
        <mxCell id="Rd3AmwXykcZ8SJWORNFc-14" value="-address&lt;div&gt;-phone&lt;/div&gt;&lt;div&gt;-email&lt;/div&gt;" style="align=left;strokeColor=none;fillColor=none;spacingLeft=4;fontSize=12;verticalAlign=top;resizable=0;rotatable=0;part=1;html=1;" vertex="1" parent="Rd3AmwXykcZ8SJWORNFc-13">
          <mxGeometry y="50" width="160" height="70" as="geometry" />
        </mxCell>
      </root>
    </mxGraphModel>
  </diagram>
</mxfile>
